<?xml version="1.0" standalone="no"?><!DOCTYPE svg PUBLIC "-//W3C//DTD SVG 1.1//EN" "http://www.w3.org/Graphics/SVG/1.1/DTD/svg11.dtd"><svg t="1590550361426" class="icon" viewBox="0 0 1024 1024" version="1.1" xmlns="http://www.w3.org/2000/svg" p-id="5309" xmlns:xlink="http://www.w3.org/1999/xlink" width="200" height="200"><defs><style type="text/css"></style></defs><path d="M944.05214777 55.67525888H89.65688889c-53.39970333 0-97.09036999 43.69066667-97.09036999 97.09037113v567.97866666c0 53.39970333 43.69066667 97.09036999 97.09036999 97.09037H172.18370333c24.27259221 0 48.54518557 9.70903666 67.96326001 29.12711111l72.81777778 72.81777777c38.83614777 38.83614777 97.09036999 38.83614777 135.92651776 0l72.81777778-72.81777777c19.41807445-19.41807445 43.69066667-29.12711111 67.96326001-29.12711111H948.90666667c53.39970333 0 97.09036999-43.69066667 97.09036999-97.09037V152.76563001c-4.8545189-53.39970333-48.54518557-97.09036999-101.94488889-97.09037113z" p-id="5310"></path><path d="M230.43792555 439.18222222m-53.39970333 0a53.39970333 53.39970333 0 1 0 106.79940779 0 53.39970333 53.39970333 0 1 0-106.79940779 0Z" fill="#1A1311" p-id="5311"></path><path d="M516.8545189 439.18222222m-53.39970447 0a53.39970333 53.39970333 0 1 0 106.79940779 0 53.39970333 53.39970333 0 1 0-106.79940779 0Z" fill="#1A1311" p-id="5312"></path><path d="M798.41659221 439.18222222m-53.39970332 0a53.39970333 53.39970333 0 1 0 106.79940778 0 53.39970333 53.39970333 0 1 0-106.79940778 0Z" fill="#1A1311" p-id="5313"></path></svg>