<?xml version="1.0" standalone="no"?><!DOCTYPE svg PUBLIC "-//W3C//DTD SVG 1.1//EN" "http://www.w3.org/Graphics/SVG/1.1/DTD/svg11.dtd"><svg t="1590549456898" class="icon" viewBox="0 0 1024 1024" version="1.1" xmlns="http://www.w3.org/2000/svg" p-id="6131" xmlns:xlink="http://www.w3.org/1999/xlink" width="200" height="200"><defs><style type="text/css"></style></defs><path d="M54.38686857 111.30250228C54.38686857 48.26629407 105.58233872-2.81477221 168.44694199-2.81477221h687.10611602C918.53206512-2.81477221 969.61313143 48.26629407 969.61313143 111.30250228v801.39499544A114.17447561 114.17447561 0 0 1 855.55305801 1026.81477221H168.44694199A114.06007343 114.06007343 0 0 1 54.38686857 912.69749772V111.30250228zM225.99179265 225.99179265c0 31.80411203 25.51193259 57.20164081 56.91563372 57.20164249h458.18514726c30.88888633 0 56.91563373-25.62633476 56.91563372-57.20164249 0-31.80411203-25.51193259-57.20164081-56.91563372-57.20164081h-458.18514726c-30.88888633 0-56.91563373 25.62633476-56.91563372 57.20164081z m0 228.80656654c0 31.80411203 25.62633476 57.20164081 57.20164249 57.20164081 31.80411203 0 57.20164081-25.62633476 57.20164077-57.20164081 0-31.80411203-25.62633476-57.20164081-57.20164077-57.20164245-31.80411203 0-57.20164081 25.62633476-57.20164249 57.20164245z m228.80656654 0c0 31.80411203 25.62633476 57.20164081 57.20164081 57.20164081 31.80411203 0 57.20164081-25.62633476 57.20164081-57.20164081 0-31.80411203-25.62633476-57.20164081-57.20164081-57.20164245-31.80411203 0-57.20164081 25.62633476-57.20164081 57.20164245z m228.8065649 0c0 31.80411203 25.62633476 57.20164081 57.20164077 57.20164081 31.80411203 0 57.20164081-25.62633476 57.20164249-57.20164081 0-31.80411203-25.62633476-57.20164081-57.20164249-57.20164245-31.80411203 0-57.20164081 25.62633476-57.20164077 57.20164245z m-457.61313144 171.60492407c0 31.80411203 25.62633476 57.20164081 57.20164249 57.20164083 31.80411203 0 57.20164081-25.62633476 57.20164077-57.20164083 0-31.80411203-25.62633476-57.20164081-57.20164077-57.20164245-31.80411203 0-57.20164081 25.62633476-57.20164249 57.20164245z m228.80656654 0c0 31.80411203 25.62633476 57.20164081 57.20164081 57.20164083 31.80411203 0 57.20164081-25.62633476 57.20164081-57.20164083 0-31.80411203-25.62633476-57.20164081-57.20164081-57.20164245-31.80411203 0-57.20164081 25.62633476-57.20164081 57.20164245z m228.8065649 0c0 31.80411203 25.62633476 57.20164081 57.20164077 57.20164083 31.80411203 0 57.20164081-25.62633476 57.20164249-57.20164083 0-31.80411203-25.62633476-57.20164081-57.20164249-57.20164245-31.80411203 0-57.20164081 25.62633476-57.20164077 57.20164245z m-457.61313144 171.60492409c0 31.80411203 25.62633476 57.20164081 57.20164249 57.20164081 31.80411203 0 57.20164081-25.62633476 57.20164077-57.20164081 0-31.80411203-25.62633476-57.20164081-57.20164077-57.20164249-31.80411203 0-57.20164081 25.62633476-57.20164249 57.20164249z m228.80656654 0c0 31.80411203 25.62633476 57.20164081 57.20164081 57.20164081 31.80411203 0 57.20164081-25.62633476 57.20164081-57.20164081 0-31.80411203-25.62633476-57.20164081-57.20164081-57.20164249-31.80411203 0-57.20164081 25.62633476-57.20164081 57.20164249z m228.8065649 0c0 31.80411203 25.62633476 57.20164081 57.20164077 57.20164081 31.80411203 0 57.20164081-25.62633476 57.20164249-57.20164081 0-31.80411203-25.62633476-57.20164081-57.20164249-57.20164249-31.80411203 0-57.20164081 25.62633476-57.20164077 57.20164249z" p-id="6132"></path></svg>