<?xml version="1.0" standalone="no"?><!DOCTYPE svg PUBLIC "-//W3C//DTD SVG 1.1//EN" "http://www.w3.org/Graphics/SVG/1.1/DTD/svg11.dtd"><svg t="1590548928067" class="icon" viewBox="0 0 1024 1024" version="1.1" xmlns="http://www.w3.org/2000/svg" p-id="5530" xmlns:xlink="http://www.w3.org/1999/xlink" width="200" height="200"><defs><style type="text/css"></style></defs><path d="M512 1024C229.233778 1024 0 794.766222 0 512S229.233778 0 512 0s512 229.233778 512 512-229.233778 512-512 512z m19.114667-845.596444a26.936889 26.936889 0 0 0-37.802667 0l-105.585778 105.159111a13.041778 13.041778 0 0 0 9.130667 22.158222H433.777778v54.755555c0 7.196444 5.831111 13.027556 13.027555 13.027556h130.787556c7.210667 0 13.041778-5.831111 13.041778-13.027556v-54.755555h36.494222a13.041778 13.041778 0 0 0 9.130667-22.158222l-105.159112-105.159111z m46.065777 234.652444a13.041778 13.041778 0 0 0 0-26.083556h-130.360888a13.041778 13.041778 0 0 0 0 26.083556h130.360888z m-284.871111 165.717333a53.902222 53.902222 0 0 1 53.859556-53.845333h120.874667c18.773333 0 35.313778 9.671111 44.956444 24.263111a53.831111 53.831111 0 0 1 44.956444-24.263111h120.888889a53.902222 53.902222 0 0 1 53.831111 53.845333v2.488889h13.482667v-52.508444a59.164444 59.164444 0 0 0-59.093333-59.093334H337.934222a59.164444 59.164444 0 0 0-59.093333 59.093334v52.508444h13.482667v-2.488889z m481.507556 27.633778H250.168889c-12.472889 0-22.627556 10.154667-22.627556 22.627556v131.370666c0 12.487111 10.154667 22.641778 22.627556 22.641778h9.429333l-4.650666 13.098667a17.180444 17.180444 0 0 0 12.472888 22.513778 21.959111 21.959111 0 0 0 25.457778-14.108445l7.608889-21.518222h422.997333l7.608889 21.518222a21.959111 21.959111 0 0 0 25.457778 14.108445 17.180444 17.180444 0 0 0 12.472889-22.513778l-4.650667-13.098667h9.429334c12.472889 0 22.627556-10.154667 22.627555-22.641778V629.048889c0-12.472889-10.154667-22.627556-22.627555-22.627556z m-216.860445-56.32a28.728889 28.728889 0 0 0-28.700444 28.686222v2.488889h178.275556v-2.488889a28.728889 28.728889 0 0 0-28.700445-28.700444h-120.874667z m-210.787555 0a28.728889 28.728889 0 0 0-28.700445 28.686222v2.488889h178.275556v-2.488889a28.728889 28.728889 0 0 0-28.700444-28.700444h-120.888889z" p-id="5531"></path></svg>