<?xml version="1.0" standalone="no"?><!DOCTYPE svg PUBLIC "-//W3C//DTD SVG 1.1//EN" "http://www.w3.org/Graphics/SVG/1.1/DTD/svg11.dtd"><svg t="1590549288707" class="icon" viewBox="0 0 1024 1024" version="1.1" xmlns="http://www.w3.org/2000/svg" p-id="6003" xmlns:xlink="http://www.w3.org/1999/xlink" width="200" height="200"><defs><style type="text/css"></style></defs><path d="M467.8549504 908.22191787a45.27518151 44.15087502 90 1 0 88.30175005 0 45.27518151 44.15087502 90 1 0-88.30175005 0Z" p-id="6004"></path><path d="M681.61881885 816.28510435H169.29041067V114.40910791h596.0105984v-45.28100693c0-37.51571911-29.63974827-67.92442311-66.2175744-67.92442311H169.29041067c-36.58947698 0-66.22922525 30.408704-66.22922525 67.92442311v883.00002417c0 37.50406827 29.63974827 67.92442311 66.22922525 67.92442312h529.80467484c36.56617529 0 66.2175744-30.41452942 66.20592356-67.91277227v-135.67990898h-83.68219022v-0.17476267zM356.92143502 57.8093056c0-6.25067805 4.95743431-11.3246208 11.04500053-11.3246208h110.36844943c6.08756622 0 11.04500053 5.07394275 11.04500053 11.3246208v11.31296995c0 6.25067805-4.95743431 11.3246208-11.04500053 11.3246208H367.96643555c-6.08756622 0-11.04500053-5.07394275-11.04500053-11.3246208v-11.31296995z m77.27422578 894.31881955c-24.38521742 0-44.15087502-20.26664391-44.15087502-45.26935608 0-25.0085376 19.77730845-45.28100693 44.15087502-45.28100694 24.379392 0 44.1450496 20.27246933 44.1450496 45.28100694 0 24.99106133-19.75983218 45.26935609-44.1450496 45.26935608z" p-id="6005"></path><path d="M442.31047395 225.71545031H268.66628835c-8.88959431 0-17.79083947 5.80212053-18.81028835 15.990784-1.03692515 10.82363449 7.86432 19.9753728 18.68212907 19.9753728h173.90050418c9.53621618 0 18.95009849-6.57690169 18.95009848-18.04715804-0.13398471-11.34209707-7.74198613-17.91899875-19.07825778-17.91899876zM363.03230293 651.75187911H279.62390755c-8.24879787 0-16.36943645 5.66813582-16.36943644 15.58882987 0 9.79836018 6.57107627 15.61213155 16.36943644 15.61213155h83.40256996c8.25462329 0 16.37526187-5.67978667 16.37526187-15.61213155-0.13398471-9.92069405-6.69923555-15.58882987-16.36943645-15.58882987zM419.10781725 701.75730347H354.25921707c-6.31475769 0-12.75184925 4.39236835-12.75184925 12.11687822 0 7.61382685 5.02733938 11.4819072 12.75184925 11.4819072h64.84860018c6.30893227 0 12.75767467-3.74574649 12.75767466-11.4819072-0.12815929-7.73616071-5.16132409-12.11687822-12.75767466-12.11687822zM424.86915982 326.67584285l257.79823503 171.26741333c6.58855253 5.48754773 19.84138809 5.48754773 26.41828977 0l267.76553245-179.53951289c0-13.85285405-16.54419911-24.82212409-33.10004907-24.82212409H447.90870471c-16.55584995 0-33.11169991 13.85867947-33.11169991 27.61250133v2.79037725c3.49525333-0.09903218 6.78661689-0.09903218 10.07215502 2.69134507z" p-id="6006"></path><path d="M728.92707271 520.07986062c-9.86243982 5.47007147-19.82973725 8.26044871-33.10004906 8.26044871-13.27613725 0-23.13857707-2.79037725-33.1058745-8.26044871L414.9018624 354.2941696v270.65494187c0 13.85867947 16.55584995 27.60667591 33.10587449 27.60667591h495.85411413c16.55002453 0 33.09422365-13.85867947 33.09422365-27.60667591V354.2941696l-248.02900196 165.78569102z" p-id="6007"></path></svg>